<?xml version="1.0" encoding="utf-8"?>
<!-- Generator: Adobe Illustrator 21.0.0, SVG Export Plug-In . SVG Version: 6.00 Build 0)  -->
<svg version="1.1" id="图层_1" xmlns="http://www.w3.org/2000/svg" xmlns:xlink="http://www.w3.org/1999/xlink" x="0px" y="0px"
	 viewBox="0 0 1024 1024" style="enable-background:new 0 0 1024 1024;" xml:space="preserve">
<style type="text/css">
	.st0{fill:#384452;}
	.st1{fill:#FFFFFF;}
	.st2{fill:#FFFDED;}
	.st3{font-family:'STBaoliSC-Regular';}
	.st4{font-size:320px;}
	.st5{font-family:'STLibianSC-Regular';}
</style>
<rect x="0" y="0" class="st0" width="1024" height="1024"/>
<g transform="translate(0.000000,128.000000) scale(0.100000,-0.100000)">
	<path class="st1" d="M6919.3-708.8c-436.9-93.4-814.1-474.3-905.6-913.1c-177.4-847.8,571.4-1596.6,1419-1419.2
		c444.4,93.4,821.6,470.6,914.9,915C8525.1-1274.6,7770.8-525.8,6919.3-708.8z M7487-960.9c282-95.2,509.7-324.9,610.6-616.2
		c57.9-166.2,57.9-427.6,0-593.8c-100.8-293.2-326.7-519.1-619.9-620c-166.2-57.9-427.6-57.9-593.8,0
		c-403.3,140.1-659.1,493-661,907.5c0,183,18.7,276.4,95.2,435.1c54.1,115.8,214.7,298.8,328.6,375.3
		C6891.3-908.6,7205-867.6,7487-960.9z"/>
	<path class="st1" d="M6781.2-1334.4c-99-28-197.9-151.2-197.9-248.3c0-26.1,7.5-50.4,16.8-56c31.7-20.5,76.6,11.2,76.6,56
		c0,24.3,24.3,71,54.2,104.6c95.2,106.4,255.8,67.2,300.6-72.8c31.7-95.2,50.4-113.9,84-78.4c31.7,29.9,14.9,117.6-37.3,196.1
		C7025.8-1353.1,6882-1304.5,6781.2-1334.4z"/>
	<path class="st1" d="M7414.1-1341.8c-89.6-31.7-149.4-97.1-175.5-190.5c-16.8-56-14.9-76.6,7.5-97.1c33.6-35.5,52.3-16.8,84,78.4
		c44.8,140.1,205.4,179.3,300.6,72.8c29.9-33.6,54.2-80.3,54.2-104.6c0-26.1,11.2-48.5,24.3-54.2c76.6-26.1,93.4,76.6,28,173.7
		C7653.1-1340,7543-1298.9,7414.1-1341.8z"/>
	<path class="st1" d="M6553.4-2017.8c46.7-194.2,212.9-384.7,395.8-451.9c136.3-52.3,326.7-52.3,463,0
		c183,67.2,349.2,257.7,395.8,451.9l11.2,50.4h-638.6h-638.6L6553.4-2017.8z"/>
</g>
<text transform="matrix(1 0 0 1 226.2813 403.0946)"><tspan x="0" y="0" class="st2 st3 st4">玩</tspan><tspan x="0" y="384" class="st2 st5 st4">什么</tspan></text>
</svg>
