<?xml version="1.0" encoding="utf-8"?>
<!-- Generator: Adobe Illustrator 21.0.0, SVG Export Plug-In . SVG Version: 6.00 Build 0)  -->
<svg version="1.1" id="图层_1" xmlns="http://www.w3.org/2000/svg" xmlns:xlink="http://www.w3.org/1999/xlink" x="0px" y="0px"
	 viewBox="0 0 1024 1024" style="enable-background:new 0 0 1024 1024;" xml:space="preserve">
<style type="text/css">
	.st0{fill:#384452;}
</style>
<g transform="translate(0.000000,128.000000) scale(0.100000,-0.100000)">
	<path class="st0" d="M3998.6,1160.7C2123.8,760.1,505.3-874.5,112.7-2757.6c-761.2-3637.8,2451.8-6851,6089.3-6089.8
		c1906.9,400.6,3525.4,2019.2,3926,3926.3C10889.2-1267.2,7652.2,1946,3998.6,1160.7z M6434.4,79
		c1209.9-408.7,2187.3-1394.2,2620-2644.2c248.4-713.1,248.4-1834.9,0-2548.1c-432.7-1258-1402.1-2227.6-2660.1-2660.3
		c-713.1-248.4-1834.8-248.4-2547.9,0c-1730.6,601-2828.3,2115.4-2836.3,3894.2c0,785.3,80.1,1185.9,408.6,1867
		C1651-1515.6,2340.1-730.3,2828.8-401.8C3878.4,303.4,5224.5,479.6,6434.4,79z"/>
	<path class="st0" d="M3405.7-1523.6c-424.7-120.2-849.3-649-849.3-1065.7c0-112.2,32-216.3,72.1-240.4
		c136.2-88.1,328.5,48.1,328.5,240.4c0,104.2,104.2,304.5,232.4,448.7c408.6,456.7,1097.7,288.5,1290-312.5
		c136.2-408.7,216.3-488.8,360.6-336.5c136.2,128.2,64.1,504.8-160.2,841.3C4455.3-1603.7,3838.4-1395.4,3405.7-1523.6z"/>
	<path class="st0" d="M6121.9-1555.6c-384.6-136.2-641-416.7-753.2-817.3c-72.1-240.4-64.1-328.5,32-416.7
		c144.2-152.2,224.3-72.1,360.6,336.5c192.3,601,881.3,769.2,1290,312.5c128.2-144.2,232.4-344.6,232.4-448.7
		c0-112.2,48.1-208.3,104.2-232.4c328.5-112.2,400.6,328.5,120.2,745.2C7147.4-1547.6,6674.7-1371.3,6121.9-1555.6z"/>
	<path class="st0" d="M2428.2-4456.3c200.3-833.3,913.4-1650.6,1698.6-1939.1c584.9-224.4,1402.1-224.4,1987,0
		c785.2,288.5,1498.3,1105.8,1698.6,1939.1l48.1,216.3H5120.3H2380.1L2428.2-4456.3z"/>
</g>
</svg>
